<svg xmlns:xlink="http://www.w3.org/1999/xlink" version="1.1" viewBox="0.0 0.0 40.0 40.0" fill="none" stroke="none"
     stroke-linecap="square" stroke-miterlimit="10" xmlns="http://www.w3.org/2000/svg">
    <clipPath id="p.0">
        <path d="m0 0l40.0 0l0 40.0l-40.0 0l0 -40.0z" clip-rule="nonzero"/>
    </clipPath>
    <g clip-path="url(#p.0)">
        <path fill="#000000" fill-opacity="0.0" d="m0 0l40.0 0l0 40.0l-40.0 0z" fill-rule="evenodd"/>
        <path fill="#296078" d="m-0.6062992 -0.70603675l41.732285 0l0 41.322834l-41.732285 0z" fill-rule="evenodd"/>
        <path stroke="#000000" stroke-width="1.0" stroke-linejoin="round" stroke-linecap="butt"
              d="m-0.6062992 -0.70603675l41.732285 0l0 41.322834l-41.732285 0z" fill-rule="evenodd"/>
        <g filter="url(#shadowFilter-p.1)">
            <use xlink:href="#p.1" transform="matrix(1.0 0.0 0.0 1.0 0.0 2.0)"/>
        </g>
        <defs>
            <filter id="shadowFilter-p.1" filterUnits="userSpaceOnUse">
                <feGaussianBlur in="SourceAlpha" stdDeviation="2.0" result="blur"/>
                <feComponentTransfer in="blur" color-interpolation-filters="sRGB">
                    <feFuncR type="linear" slope="0" intercept="0.0"/>
                    <feFuncG type="linear" slope="0" intercept="0.0"/>
                    <feFuncB type="linear" slope="0" intercept="0.0"/>
                    <feFuncA type="linear" slope="0.5" intercept="0"/>
                </feComponentTransfer>
            </filter>
        </defs>
        <g id="p.1">
            <path fill="#000000" fill-opacity="0.0" d="m2.8269007 4.963309l32.62992 0l0 29.984251l-32.62992 0z"
                  fill-rule="evenodd"/>
            <path fill="#f2617a" d="m12.363541 7.950434l-6.5937495 11.03125l-1.8593752 0l6.578125 -11.03125l1.875 0z"
                  fill-rule="nonzero"/>
            <path fill="#f3f3f3"
                  d="m21.230728 10.044184l-2.71875 0l-1.625 7.03125l-2.265625 0l1.625 -7.03125l-2.71875 0l0.390625 -1.6875l7.703125 0l-0.390625 1.6875zm13.7734375 -1.6875l-4.234375 8.71875l-2.421875 0l-0.375 -5.78125l-2.828125 5.78125l-2.5 0l-0.40625 -8.71875l2.34375 0l0.03125 6.0l2.921875 -6.0l2.25 0l0.265625 6.0l2.671875 -6.0l2.28125 0z"
                  fill-rule="nonzero"/>
            <path fill="#f3f3f3"
                  d="m14.49733 31.647308q-1.78125 0 -2.75 -0.875q-0.953125 -0.875 -0.953125 -2.484375q0 -1.296875 0.421875 -2.328125q0.4375 -1.046875 1.171875 -1.8125q0.734375 -0.734375 1.75 -1.140625q1.015625 -0.421875 2.140625 -0.421875q0.890625 0 1.65625 0.1875q0.78125 0.171875 1.40625 0.53125l-0.515625 2.125l-0.25 0q-0.5625 -0.609375 -1.125 -0.890625q-0.546875 -0.28125 -1.28125 -0.28125q-1.3125 0 -2.15625 1.0625q-0.84375 1.046875 -0.84375 2.65625q0 1.046875 0.46875 1.515625q0.46875 0.46875 1.375 0.46875q0.796875 0 1.5 -0.3125q0.71875 -0.328125 1.359375 -0.84375l0.234375 0l-0.515625 2.09375q-0.265625 0.109375 -0.625 0.265625q-0.34375 0.140625 -0.671875 0.234375q-0.421875 0.125 -0.78125 0.1875q-0.359375 0.0625 -1.015625 0.0625zm13.402344 -6.703125q0 1.046875 -0.640625 1.765625q-0.640625 0.71875 -1.734375 1.078125l2.015625 3.6875l-2.515625 0l-1.640625 -3.203125l-1.265625 0l-0.734375 3.203125l-2.25 0l2.015625 -8.71875l3.40625 0q1.59375 0 2.46875 0.546875q0.875 0.53125 0.875 1.640625zm-2.421875 0.375q0 -0.53125 -0.34375 -0.75q-0.328125 -0.21875 -0.984375 -0.21875l-1.109375 0l-0.546875 2.359375l1.109375 0q0.890625 0 1.375 -0.359375q0.5 -0.375 0.5 -1.03125z"
                  fill-rule="nonzero"/>
        </g>
    </g>
</svg>